<?xml version="1.0" encoding="utf-8"?>
<!-- Generated by IcoMoon.io -->
<!DOCTYPE svg PUBLIC "-//W3C//DTD SVG 1.1//EN" "http://www.w3.org/Graphics/SVG/1.1/DTD/svg11.dtd">
<svg version="1.1" xmlns="http://www.w3.org/2000/svg" xmlns:xlink="http://www.w3.org/1999/xlink" width="1024" height="1024" viewBox="0 0 1024 1024">
<g id="icomoon-ignore">
</g>
<path d="M896.544 896.512h-66.080l-64.064-192.256h-542.752l-64.096 192.256h-64.096c-53.056 0-96.128-43.072-96.128-96.128v-576.768c0-53.088 43.072-96.096 96.128-96.096h801.056c53.088 0 96.128 43.040 96.128 96.096v576.768c0.032 53.056-43.008 96.128-96.096 96.128zM894.528 223.616h-799.072v416.544h799.072v-416.544zM832.448 576.064h-672.896v-288.352h672.864v288.352zM303.616 351.264c-44.256 0-80.096 35.872-80.096 80.096s35.84 80.096 80.096 80.096 80.128-35.872 80.128-80.096-35.872-80.096-80.128-80.096zM542.048 399.872h-94.112v64.064h94.112v-64.064zM688.416 351.264c-44.256 0-80.096 35.872-80.096 80.096s35.84 80.096 80.096 80.096c44.224 0 80.096-35.872 80.096-80.096s-35.872-80.096-80.096-80.096zM686.24 463.936c-17.696 0-32.032-14.336-32.032-32.032s14.336-32.032 32.032-32.032 32.064 14.336 32.064 32.032c0 17.696-14.368 32.032-32.064 32.032zM305.76 463.936c-17.696 0-32.032-14.336-32.032-32.032s14.336-32.032 32.032-32.032c17.728 0 32.064 14.336 32.064 32.032s-14.368 32.032-32.064 32.032zM744.32 736.288l56.096 158.88h-610.816l54.048-158.88h500.672zM704.288 832.416h32.032v-32.032h-32.032v32.032zM640.192 832.416h32.064v-32.032h-32.064v32.032zM415.904 832.416h158.208v-32.032h-158.208v32.032zM319.776 832.416h32.032v-32.032h-32.032v32.032zM255.68 832.416h32.032v-32.032h-32.032v32.032z"></path>
</svg>
