<?xml version="1.0" encoding="utf-8"?>
<!-- Generated by IcoMoon.io -->
<!DOCTYPE svg PUBLIC "-//W3C//DTD SVG 1.1//EN" "http://www.w3.org/Graphics/SVG/1.1/DTD/svg11.dtd">
<svg version="1.1" xmlns="http://www.w3.org/2000/svg" xmlns:xlink="http://www.w3.org/1999/xlink" width="64" height="32" viewBox="0 0 64 32">
<path fill="#e68049" d="M62.088 9.852l-3.115 0.033v-3.18c0-2.581-2.093-4.672-4.672-4.672h-48.281c-2.581 0-4.672 2.092-4.672 4.672v17.132c0 2.579 2.092 4.672 4.672 4.672h6.197l-0.033 1.461h35.887l-0.033-1.461h6.263c2.579 0 4.672-2.093 4.672-4.672v-3.211h3.179l-0.064-10.773zM57.415 23.836c0 1.719-1.395 3.115-3.115 3.115h-48.281c-1.719 0-3.115-1.395-3.115-3.115v-17.132c0-1.719 1.395-3.115 3.115-3.115h48.281c1.719 0 3.115 1.395 3.115 3.115v17.132zM54.3 5.147h-48.281c-0.861 0-1.558 0.696-1.558 1.558v17.132c0 0.861 0.696 1.558 1.558 1.558h48.281c0.86 0 1.557-0.696 1.557-1.558v-17.132c0-0.86-0.698-1.558-1.557-1.558zM51.57 9.793l-1.246 1.168h-3.786l-1.059-1.168h6.091zM50.142 14.659l0.545 0.578-0.654 0.578h-4.068l-0.515-0.578 0.623-0.578h4.070zM45.247 9.998l1.057 1.168-0.263 3.115-0.794 0.732-0.405-0.436 0.405-4.579zM35.139 9.998l1.057 1.168-0.263 3.115-0.794 0.732-0.405-0.436 0.405-4.579zM40.029 14.659l0.547 0.578-0.656 0.578h-4.063l-0.514-0.578 0.621-0.578h4.065zM19.577 9.998l1.057 1.168-0.273 3.115-0.787 0.733-0.4-0.436 0.402-4.58zM24.466 14.659l0.547 0.578-0.654 0.578h-4.070l-0.508-0.578 0.622-0.578h4.063zM15.792 9.793l-1.248 1.168h-3.785l-1.059-1.168h6.091zM9.469 9.998l1.059 1.168-0.274 3.115-0.787 0.733-0.4-0.436 0.402-4.58zM8.951 15.901l0.467-0.45 0.67 0.731-0.262 3.116-1.274 1.168 0.399-4.565zM8.745 20.682l1.277-1.168h3.779l1.042 1.168h-6.098zM15.076 20.463l-1.047-1.166 0.262-3.116 0.796-0.731 0.389 0.45-0.4 4.563zM15.592 14.577l-0.456 0.436-0.678-0.733 0.273-3.115 1.264-1.168-0.403 4.58zM19.058 15.901l0.467-0.45 0.67 0.731-0.262 3.116-1.274 1.166 0.399-4.563zM18.851 20.682l1.277-1.168h3.78l1.042 1.168h-6.099zM25.184 20.464l-1.043-1.168 0.263-3.115 0.796-0.732 0.391 0.45-0.407 4.565zM24.654 10.961h-3.785l-1.061-1.168h6.090l-1.244 1.168zM30.277 20.682h-1.168l0.107-1.168h1.168l-0.107 1.168zM30.962 12.774h-1.168l0.109-1.168h1.168l-0.109 1.168zM34.423 20.682l1.262-1.168h3.785l1.043 1.168h-6.090zM40.746 20.463l-1.045-1.166 0.265-3.115 0.796-0.732 0.389 0.45-0.405 4.563zM40.216 10.961h-3.785l-1.061-1.168h6.090l-1.244 1.168zM44.531 20.682l1.263-1.168h3.785l1.043 1.168h-6.091zM50.854 20.463l-1.047-1.166 0.262-3.116 0.796-0.731 0.389 0.45-0.4 4.563zM51.371 14.577l-0.458 0.436-0.678-0.733 0.274-3.115 1.264-1.168-0.403 4.58z"></path>
</svg>
